<?xml version="1.0" encoding="UTF-8" standalone="no"?>
<!-- Created with Inkscape (http://www.inkscape.org/) -->

<svg
   width="420mm"
   height="297mm"
   viewBox="0 0 1587.4016 1122.5197"
   version="1.1"
   id="svg1"
   inkscape:version="1.3.2 (091e20e, 2023-11-25, custom)"
   sodipodi:docname="testpattern.svg"
   xmlns:inkscape="http://www.inkscape.org/namespaces/inkscape"
   xmlns:sodipodi="http://sodipodi.sourceforge.net/DTD/sodipodi-0.dtd"
   xmlns:xlink="http://www.w3.org/1999/xlink"
   xmlns="http://www.w3.org/2000/svg"
   xmlns:svg="http://www.w3.org/2000/svg">
  <sodipodi:namedview
     id="namedview1"
     pagecolor="#ffffff"
     bordercolor="#000000"
     borderopacity="0.25"
     inkscape:showpageshadow="2"
     inkscape:pageopacity="0.0"
     inkscape:pagecheckerboard="0"
     inkscape:deskcolor="#d1d1d1"
     inkscape:document-units="mm"
     inkscape:zoom="1"
     inkscape:cx="504.5"
     inkscape:cy="576.5"
     inkscape:window-width="3840"
     inkscape:window-height="2066"
     inkscape:window-x="-11"
     inkscape:window-y="-11"
     inkscape:window-maximized="1"
     inkscape:current-layer="layer1" />
  <defs
     id="defs1">
    <linearGradient
       id="linearGradient4"
       inkscape:collect="always">
      <stop
         style="stop-color:#000000;stop-opacity:1;"
         offset="0"
         id="stop4" />
      <stop
         style="stop-color:#000000;stop-opacity:0;"
         offset="1"
         id="stop5" />
    </linearGradient>
    <linearGradient
       inkscape:collect="always"
       xlink:href="#linearGradient4"
       id="linearGradient5"
       x1="367.99999"
       y1="192.99999"
       x2="1172"
       y2="192.99999"
       gradientUnits="userSpaceOnUse"
       gradientTransform="matrix(0.940181,0,0,0.43609934,50.863802,887.07165)" />
  </defs>
  <g
     inkscape:label="Layer 1"
     inkscape:groupmode="layer"
     id="layer1">
    <rect
       style="fill:url(#linearGradient5);stroke:none;stroke-width:3.5261;stroke-opacity:0.278261"
       id="rect4"
       width="755.90552"
       height="56.692913"
       x="396.8504"
       y="942.89233" />
    <rect
       style="fill:#808080;fill-opacity:1;stroke:none;stroke-width:3.52611;stroke-opacity:0.278261"
       id="rect4-5"
       width="755.90552"
       height="56.692913"
       x="396.8504"
       y="99.720779" />
    <rect
       style="fill:#808080;fill-opacity:1;stroke:none;stroke-width:2.60831;stroke-opacity:0.278261"
       id="rect5-8"
       width="113.38583"
       height="113.38583"
       x="329"
       y="807" />
    <path
       sodipodi:type="spiral"
       style="fill:none;fill-rule:evenodd;stroke:#000000"
       id="path5"
       sodipodi:cx="753.77582"
       sodipodi:cy="574.87781"
       sodipodi:expansion="2"
       sodipodi:revolution="100"
       sodipodi:radius="505.85571"
       sodipodi:argument="-17.899334"
       sodipodi:t0="0"
       d="m 753.77582,574.87781 c 8.1e-4,0.001 -0.002,0.002 -0.003,0.002 -0.006,-2.6e-4 -0.006,-0.008 -0.005,-0.0121 0.005,-0.012 0.021,-0.0121 0.0305,-0.006 0.0201,0.0123 0.019,0.0406 0.006,0.0577 -0.0225,0.0301 -0.067,0.0273 -0.0937,0.005 -0.042,-0.0355 -0.0369,-0.10027 -0.002,-0.13856 0.0513,-0.056 0.1403,-0.0479 0.19222,0.003 0.072,0.0698 0.0601,0.18715 -0.008,0.2547 -0.0912,0.0899 -0.24081,0.0737 -0.326,-0.0157 -0.1099,-0.11537 -0.0887,-0.30128 0.0245,-0.40612 0.14234,-0.13187 0.36857,-0.10496 0.49507,0.0348 0.15584,0.17211 0.12257,0.44268 -0.0465,0.59284 -0.20468,0.18181 -0.52361,0.14151 -0.69943,-0.0597 -0.20978,-0.24005 -0.16179,-0.61135 0.0743,-0.81483 0.27822,-0.23976 0.70591,-0.18341 0.93906,0.0905 0.27174,0.3192 0.20635,0.80729 -0.10807,1.07212 -0.36298,0.30572 -0.91549,0.23063 -1.21399,-0.12714 -0.3417,-0.40955 -0.25625,-1.0305 0.14767,-1.36468 0.45893,-0.3797 1.15233,-0.28321 1.5242,0.16967 0.41968,0.51111 0.31149,1.28097 -0.19314,1.69253 -0.5661,0.46168 -1.41644,0.34112 -1.86969,-0.21807 -0.50567,-0.62388 -0.37208,-1.55873 0.24447,-2.05567 0.68447,-0.55167 1.70783,-0.40437 2.25047,0.27234 0.59968,0.74786 0.438,1.86375 -0.30168,2.45409 -0.81404,0.64968 -2.02649,0.47297 -2.66653,-0.33248 -0.70169,-0.88304 -0.50926,-2.19605 0.36476,-2.88779 0.95483,-0.7557 2.37242,-0.5469 3.11787,0.39849 0.81172,1.02942 0.58587,2.55561 -0.4337,3.35677 -1.10682,0.86974 -2.74562,0.62618 -3.6045,-0.47036 -0.92975,-1.18703 -0.66781,-2.94246 0.50851,-3.86105 1.27003,-0.99178 3.1461,-0.71079 4.12642,0.54811 1.0558,1.35584 0.75509,3.35657 -0.58919,4.40061 -1.44444,1.12183 -3.57385,0.80074 -4.68362,-0.63173 -1.18986,-1.53585 -0.84772,-3.79795 0.67574,-4.97545 1.63006,-1.2599 4.02887,-0.89603 5.2761,0.72121 1.33194,1.72708 0.94568,4.26661 -0.76816,5.58558 -1.82689,1.40598 -4.51116,0.99666 -5.90387,-0.81657 -1.48202,-1.92951 -1.04898,-4.76254 0.86645,-6.23099 2.03493,-1.56006 5.02073,-1.10263 6.56692,0.91779 1.64012,2.14316 1.15763,5.28575 -0.9706,6.91169 -2.25418,1.72217 -5.55757,1.21395 -7.26526,-1.02488 -1.80623,-2.36801 -1.27161,-5.83622 1.08062,-7.62767 2.48464,-1.89228 6.12169,-1.3306 7.99889,1.13784 1.98035,2.60407 1.39093,6.41397 -1.19652,8.37894 -2.7263,2.0704 -6.71307,1.45259 -8.7678,-1.25668 -2.16247,-2.85133 -1.51559,-7.01898 1.31829,-9.16548 2.97917,-2.25654 7.33172,-1.57992 9.57199,1.38137 2.35262,3.10981 1.64559,7.65128 -1.44592,9.98732 -3.24325,2.45069 -7.97766,1.7126 -10.41147,-1.51194 -2.55077,-3.3795 -1.78093,-8.31085 1.57942,-10.84444 3.51855,-2.65285 8.65086,-1.8506 11.28623,1.64838 2.75695,3.66039 1.92162,8.99768 -1.71879,11.73684 -3.80504,2.86303 -9.35133,1.99396 -12.19627,-1.79068 -2.97113,-3.9525 -2.06764,-9.7118 1.86403,-12.66453 4.10275,-3.08121 10.07908,-2.14265 13.1416,1.93885 3.19332,4.25581 2.219,10.45319 -2.01514,13.62751 -4.41166,3.30741 -10.8341,2.29668 -14.12222,-2.0929 -3.42351,-4.57033 -2.3757,-11.22184 2.17212,-14.62576 4.73179,-3.54162 11.6164,-2.45605 15.13812,2.25281 3.66173,4.89606 2.53774,12.01777 -2.33496,15.6593 -5.06313,3.78384 -12.42597,2.62077 -16.18931,-2.41859 -3.90796,-5.233 -2.70512,-12.84097 2.50368,-16.72813 5.40567,-4.03407 13.2628,-2.79081 17.27578,2.59024 4.16219,5.58115 2.87784,13.69145 -2.67827,17.83224 -5.75942,4.29232 -14.12691,2.96621 -18.39753,-2.76776 -4.42444,-5.9405 -3.0559,-14.56919 2.85872,-18.97163 6.12439,-4.55858 15.0183,-3.14694 19.55457,2.95114 4.69471,6.31107 3.2393,15.47422 -3.04504,20.14632 -6.50056,4.83284 -15.93696,3.33301 -20.7469,-3.1404 -4.97298,-6.69284 -3.42804,-16.40651 3.23724,-21.35629 6.88793,-5.11512 16.88289,-3.52442 21.9745,3.33553 5.25926,7.08583 3.62213,17.36608 -3.4353,22.60154 -7.28652,5.40541 -17.85609,3.72117 -23.23739,-3.53653 -5.55356,-7.49001 -3.82154,-18.35292 3.63923,-23.88207 7.69631,-5.70371 18.85656,-3.92326 24.53557,3.74339 5.85587,7.90542 4.0263,19.36703 -3.84903,25.19789 -8.11732,6.01003 -19.88431,4.13069 -25.86903,-3.95612 -6.16619,-8.33203 -4.23641,-20.40842 4.06469,-26.549 8.54954,-6.32435 20.93934,-4.34345 27.23778,4.17473 6.48453,8.76985 4.45185,21.47708 -4.28623,27.93538 -8.99296,6.6467 -22.02163,4.56157 -28.64181,-4.39919 -6.81087,-9.21888 -4.67262,-22.57301 4.51364,-29.35706 9.44759,-6.97705 23.13119,-4.78502 30.08112,4.62954 7.14523,9.67911 4.89875,23.69621 -4.74691,30.81401 -9.91343,7.31541 -24.26803,5.01381 -31.55572,-4.86574 -7.4876,-10.15056 -5.13021,-24.84669 4.98605,-32.30626 10.39048,-7.66179 25.43215,-5.24794 33.06561,5.10782 7.83798,10.63321 5.367,26.02444 -5.23106,33.83379 -10.87874,8.01617 -26.62354,5.4874 -34.61079,-5.35577 -8.19636,-11.12708 -5.60914,-27.22946 5.48195,-35.3966 11.37821,-8.37857 27.8422,-5.73222 36.19124,5.60959 8.56277,11.63214 5.85662,28.46175 -5.7387,36.99469 -11.88888,8.74898 -29.08812,5.98237 -37.80697,-5.86927 -8.93719,-12.14843 -6.10945,-29.72132 6.00131,-38.62808 12.41077,-9.1274 30.36133,-6.23785 39.458,6.13483 9.31961,12.67591 6.3676,31.00816 -6.26981,40.29674 -12.94386,9.51383 -31.6618,6.49868 -41.1443,-6.40625 -9.71005,-13.21461 -6.6311,-32.32227 6.54416,-42.00069 13.48816,-9.90828 32.98956,-6.76485 42.8659,6.68354 10.1085,13.76452 6.89994,33.66366 -6.82439,43.73993 -14.04367,10.31073 -34.34458,7.03636 -44.62278,-6.96671 -10.51496,-14.32563 -7.17411,-35.03231 7.11049,-45.51444 14.61039,-10.72121 35.72687,-7.31321 46.41494,7.25573 10.92944,14.89796 7.45363,36.42825 -7.40245,47.32425 -15.18833,11.13969 -37.13644,7.5954 -48.24239,-7.55063 -11.35193,-15.48149 -7.73849,-37.85145 7.70029,-49.16934 15.77746,-11.56618 38.57328,-7.88292 50.10511,7.8514 11.78243,16.07623 8.02869,39.30193 -8.00398,51.04972 -16.37781,12.00068 -40.0374,8.17579 -52.00314,-8.15804 -12.22093,-16.68219 -8.32422,-40.77968 8.31356,-52.96538 16.98937,-12.44319 41.52878,-8.47399 53.93644,8.47055 12.66745,17.29934 8.6251,42.2847 -8.629,54.91631 -17.61213,12.89373 -43.04744,8.77755 -55.90502,-8.78892 -13.12199,-17.92771 -8.93132,-43.81699 8.95031,-56.90254 18.2461,-13.35226 44.59337,-9.08643 57.90889,9.11316 13.58453,18.5673 9.24287,45.37657 -9.27749,58.92406 -18.89128,13.81882 -46.16658,9.40066 -59.94804,-9.44328 -14.0551,-19.21807 -9.55978,-46.9634 9.61053,-60.98085 19.54767,-14.29338 47.76705,-9.72023 62.02248,9.77926 14.53367,19.88007 9.88202,48.57752 -9.94945,63.07293 -20.21527,14.77596 -49.3948,10.04514 -64.13221,-10.12111 -15.02024,-20.55327 -10.20959,-50.2189 10.29424,-65.2003 20.89408,-15.26654 51.04983,-10.37538 66.27722,10.46883 15.51484,21.23769 10.5425,51.88757 -10.64489,67.36295 -21.58411,15.76514 -52.73213,10.71097 -68.45751,-10.82241 -16.01745,-21.93332 -10.88077,-53.5835 11.00141,-69.56089 22.28533,-16.27175 54.44169,-11.0519 70.67309,11.18188 16.52806,22.64014 11.22436,55.3067 -11.36381,71.7941 -22.99776,16.78638 -56.17853,11.39816 -72.92395,-11.5472 -17.04669,-23.35818 -11.57329,-57.05718 11.73207,-74.06261 23.72141,-17.30901 57.94265,-11.74977 75.2101,11.9184 17.57332,24.08743 11.92757,58.83493 -12.1062,76.3664 -24.45626,17.83965 -59.73404,12.10671 -77.53153,-12.29547 -18.10798,-24.82789 -12.28719,-60.63995 12.4862,-78.70547 25.20232,-18.37831 61.55269,-12.469 79.88824,12.6784 18.65065,25.57955 12.65215,62.47225 -12.87207,81.07983 -25.95959,18.92498 -63.39862,12.83663 -82.28024,-13.0672 -19.20132,-26.34243 -13.02244,-64.33182 13.26381,-83.48948 26.72807,-19.47966 65.27183,-13.20959 84.70752,13.46188 19.76001,27.11651 13.39808,66.21866 -13.66141,85.9344 -27.50776,20.04236 -67.1723,13.5879 -87.1701,-13.86241 -20.3267,-27.90181 -13.77905,-68.13278 14.06489,-88.41462 28.29866,-20.61306 69.10006,-13.97154 89.66795,14.26882 20.90142,28.69831 14.16537,70.07417 -14.47423,90.93012 -29.10076,21.19178 -71.05508,14.36053 -92.20109,-14.68111 -21.48414,-29.50602 -14.55702,-72.04282 14.88945,-93.48089 29.91407,-21.77851 73.03737,-14.75486 94.76951,15.09925 22.07488,30.32494 14.95402,74.03876 -15.31052,96.06696 -30.73861,22.37325 -75.04695,15.15452 -97.37323,-15.52327 -22.67362,-31.15506 -15.35635,-76.06196 15.73748,-98.68831 31.57433,-22.976 77.08379,-15.55952 100.01222,15.95316 23.28038,31.9964 15.76403,78.11243 -16.1703,101.34494 -32.42128,23.58677 -79.14791,15.96987 -102.6865,-16.38891 -23.89515,-32.84895 -16.17704,-80.19019 16.60899,-104.03686 33.27942,-24.20555 81.23929,-16.38556 105.39606,16.83053 24.51793,33.7127 16.5954,82.29521 -17.05355,106.76407 -34.14878,24.83233 -83.35795,16.80658 -108.1409,-17.27802 -25.14873,-34.58767 -17.0191,-84.42752 17.50397,-109.52657 35.02935,-25.46713 85.50389,-17.23294 110.92104,17.73139 25.78753,35.47384 17.44813,86.58708 -17.96027,112.32434 -35.92113,26.10994 -87.6771,17.66465 -113.73646,-18.19062 -26.43435,-36.37122 -17.8825,-88.77392 18.42244,-115.15739 36.82411,-26.76077 89.87757,-18.1017 116.58715,18.65571 27.08919,37.27981 18.32222,90.98804 -18.89047,118.02574 -37.73831,27.4196 -92.10532,18.54408 -119.47314,-19.12669 -27.75202,-38.19961 -18.76727,-93.22942 19.36438,-120.92936 38.66371,-28.08645 94.36034,-18.9918 122.39441,19.60352 28.42287,39.13062 19.21766,95.49809 -19.84415,123.86828 -39.60032,28.76131 -96.64264,19.44487 -125.35096,-20.08623 -29.10174,-40.07284 -19.6734,-97.79402 20.32978,-126.84248 40.54815,-29.44417 98.95222,-19.90326 128.34281,20.57481 29.78862,41.02626 20.13447,100.11723 -20.8213,129.85196 -41.50718,30.13506 -101.28906,20.36701 -131.36993,-21.06925 -30.4835,-41.9909 -20.60088,-102.46771 21.31868,-132.89673 42.47741,-30.83395 103.65317,-20.83609 134.43234,21.56957 31.1864,42.96674 21.07264,104.84546 -21.82193,135.97677 -43.45886,31.54086 -106.04456,21.31052 -137.53003,-22.07575 -31.89732,-43.95379 -21.54973,-107.25048 22.33104,-139.09211 44.45152,-32.25578 108.46323,-21.79028 140.66301,22.58781 32.61624,44.95205 22.03217,109.68278 -22.84603,142.24272 -45.45538,32.97872 -110.90915,22.27539 -143.83127,-23.10572 -33.34318,-45.96152 -22.51994,-112.14235 23.36688,-145.42863 46.47046,-33.70965 113.38237,-22.76583 147.03482,23.62951 34.07813,46.9822 23.01306,114.6292 -23.8936,148.64982 -47.49675,34.44861 -115.88285,23.26162 -150.27365,-24.15917 -34.82109,-48.01408 -23.51151,-117.14331 24.4262,-151.90629 48.53423,-35.19558 118.41059,-23.76274 153.54776,24.69469 35.57206,49.05719 24.0153,119.6847 -24.96466,155.19806 -49.58293,35.95055 -120.96562,24.2692 -156.85717,-25.23609 -36.33104,-50.11149 -24.52443,-122.25337 25.509,-158.5251 50.64284,-36.71354 123.54792,-24.781 160.20185,25.78336 37.09804,51.177 25.0389,124.84929 -26.05919,161.88742 -51.71397,37.48454 -126.1575,25.29815 -163.58183,-26.33649 -37.87304,-52.25373 -25.55871,-127.4725 26.61526,-165.28504 52.7963,-38.26355 128.79434,-25.82062 166.99708,26.8955 38.65607,53.34165 26.08387,130.12298 -27.1772,168.71794 -53.88982,39.05057 -131.45845,26.34844 -170.44762,-27.46038 -39.44709,-54.44079 -26.61435,-132.80073 27.74501,-172.18612 54.99457,-39.84561 134.14984,-26.8816 173.93345,28.03112 40.24613,55.55114 27.15019,135.50576 -28.31869,175.68958 -56.11052,40.64866 -136.8685,27.42011 -177.45455,-28.60772 -41.05319,-56.67271 -27.69136,-138.23806 28.89823,-179.22834 57.23769,-41.45972 139.61444,-27.96395 181.01094,29.19021 41.86826,57.80547 28.23788,140.99763 -29.48364,182.80237 -58.37606,42.27879 -142.38764,28.51313 -184.60262,-29.77855 -42.69134,-58.94945 -28.78973,-143.78448 30.07492,-186.4117 59.52564,-43.10587 145.18813,-29.06765 188.22959,30.37277 43.52242,60.10464 29.34692,146.5986 -30.67208,190.0563 -60.68643,43.94097 -148.01588,29.62752 -191.89183,-30.97285 -44.36153,-61.27103 -29.90945,-149.43999 31.2751,-193.73619 61.85843,-44.78408 150.8709,-30.19272 195.58936,31.57881 45.20864,62.44863 30.47732,152.30864 -31.88399,197.45136 -63.04163,45.6352 -153.7532,30.76326 -199.32218,-32.19063 -46.06376,-63.63745 -31.05053,-155.20459 32.49875,-201.20183 64.23605,-46.49433 156.66278,-31.33913 203.09028,32.80833 46.9269,64.83747 31.62908,158.12779 -33.11937,204.98757 -65.44168,47.36147 -159.59962,31.92036 -206.89367,-33.43189 -47.79805,-66.04869 -32.21297,-161.07827 33.74587,-208.8086 66.65851,-48.23663 162.56374,-32.50692 210.73234,34.06133 48.67721,67.27113 32.8022,164.05602 -34.37824,212.6649 -67.88655,49.1198 -165.55513,33.09882 -214.60629,-34.69662 -49.56439,-68.50478 -33.39678,-167.06105 35.01647,-216.55651 69.1258,-50.01097 168.57379,-33.69605 218.51554,35.3378 50.45956,69.74963 33.99668,170.09335 -35.66058,220.48338 -70.37627,50.91017 -171.61973,34.29864 -222.46006,-35.98483 -51.36277,-71.00569 -34.60193,-173.15292 36.31055,-224.44555 71.63793,-51.81737 174.69293,-34.90656 226.43987,36.63774 52.27397,72.27297 35.21252,176.23977 -36.9664,228.443 -72.91081,52.73258 -177.79341,35.51982 -230.45496,-37.29651 -53.19319,-73.55146 -35.82845,-179.35389 37.62811,-232.47574 74.19489,-53.65581 180.92117,-36.13842 234.50534,37.96116 54.12042,74.84114 36.44972,182.49527 -38.29569,236.54376 -75.49019,54.58704 -184.0762,36.76236 -238.591,-38.63168 -55.05567,-76.14204 -37.07633,-185.66393 38.96913,-240.64706 76.7967,-55.52629 187.2585,-37.39164 242.71195,39.30806 55.99892,77.45415 37.70828,188.85987 -39.64845,244.78565 -78.11441,56.47356 -190.46807,38.02626 -246.86818,-39.99031 -56.95019,-78.77747 -38.34557,-192.08308 40.33364,-248.95953 79.44333,-57.42883 193.70491,-38.66622 251.0597,40.67843 57.90946,80.112 38.9882,195.33357 -41.0247,253.16869 -80.78346,58.39211 -196.96903,39.31152 -255.2865,-41.37242 -58.87676,-81.45773 -39.63617,-198.61132 41.72162,-257.41313 82.13481,-59.36341 200.26043,-39.96216 259.54859,42.07228 59.85206,82.81468 40.28947,201.91635 -42.42442,261.69286 -83.49735,60.34272 -203.57908,40.61813 -263.84595,-42.77801 -60.83538,-84.18283 -40.94813,-205.24865 43.13307,-266.00788 84.87111,-61.33003 206.92503,-41.27945 268.17862,43.48961 61.8267,85.5622 41.61211,208.60822 -43.84761,270.35818 -86.25608,62.32536 -210.29824,41.94611 -272.54656,-44.20708 -62.82603,-86.95276 -42.28144,-211.99506 44.56801,-274.74375 87.65226,-63.32872 213.69872,-42.61811 276.94978,44.93041 63.83339,88.35454 42.95611,215.40918 -45.29428,279.16462 -89.05963,64.34007 -217.12647,43.29545 -281.38828,-45.65962 -64.84875,-89.76753 -43.63612,-218.85057 46.02641,-283.62077 90.47823,-65.35944 220.5815,-43.97812 285.86208,46.39469 65.87213,91.19173 44.32147,222.31924 -46.76442,288.11221 -91.90803,66.38681 -224.0638,44.66614 -290.37116,-47.13563 -66.90351,-92.62714 -45.01215,-225.81518 47.5083,-292.63893 93.34904,-67.42221 227.57337,-45.3595 294.91552,47.88244 67.94291,94.07375 45.70819,229.33839 -48.25804,297.20094 -94.80127,68.4656 -231.11022,46.05819 -299.49517,-48.63513 -68.99032,-95.53157 -46.40955,-232.88887 49.01366,-301.79822 96.26469,-69.51703 234.67434,-46.76224 304.1101,49.39367 70.04572,97.00061 47.11626,236.46662 -49.77515,306.4308 -97.73932,70.57645 -238.26572,47.47161 -308.76032,-50.15809 -71.10916,-98.48085 -47.8283,-240.07165 50.54251,-311.09866 99.22517,-71.64389 241.88439,-48.18633 313.44582,50.92838 72.18056,99.9723 48.54569,243.70395 -51.31573,315.8018 -100.72222,72.71934 -245.53033,48.90639 -318.1666,-51.70453 -73.26007,-101.47496 -49.26842,-247.36353 52.09481,-320.54024 102.23049,-73.8028 249.20354,-49.63178 322.92268,52.48656 74.3475,102.98883 49.99648,251.05038 -52.87978,325.31395 -103.74996,74.89428 -252.90402,50.36252 -327.71403,-53.27446 -75.44302,-104.5139 -50.72989,-254.76449 53.6706,-330.12294 105.28065,-75.99376 256.63178,-51.0986 332.54068,54.06822 76.54653,106.05019 51.46864,258.50588 -54.4673,334.96722 -106.82254,77.10126 -260.38681,51.84002 -337.4026,-54.86785 -77.65801,-107.59768 -52.21273,-262.27454 55.26987,-339.84679 108.37563,-78.21677 264.16911,-52.58677 342.2998,55.67335 78.77756,109.15639 52.96216,266.07049 -56.0783,344.76165 C 787.9725,855.87083 629.93376,829.86941 550.68014,720.04582 470.77508,609.31951 496.96322,450.15212 607.57275,370.33404 719.08821,289.86221 879.38828,316.23773 959.77283,427.636 1040.8134,539.94342 1014.2499,701.38018 902.06005,782.3332 788.95786,863.94457 626.3804,837.19228 544.8569,724.20813 462.67276,610.30838 489.61443,446.58619 603.39573,364.49022 718.09585,281.7313 882.96677,308.86303 965.63722,423.44427 1048.9729,538.94756 1021.6505,704.97123 906.26648,788.21817 789.95722,872.13266 622.77677,844.61882 538.95136,728.42927 454.45607,611.31123 482.16198,442.97 599.15987,358.5641 c 117.92962,-85.07807 287.43565,-57.17945 372.42405,60.62961 85.66288,118.744 57.57088,289.41884 -61.05217,374.99173 -119.56118,86.24967 -291.40886,57.96358 -377.56824,-61.47619 -86.83847,-120.38116 -58.35766,-293.40569 61.90168,-380.15358 121.20395,-87.42927 295.40934,-58.75306 382.74773,62.32865 88.02208,122.02954 59.14978,297.41981 -62.75707,385.3507 -122.85793,88.61689 -299.4371,59.54788 -387.9625,-63.18697 -89.2137,-123.68912 -59.94729,-301.4612 63.61833,-390.58311 124.52311,-89.81252 303.49212,-60.34803 393.21255,64.05116 90.41337,125.35991 60.75007,305.52986 -64.48545,395.85081 -126.19951,91.01616 -307.57443,61.15352 -398.4979,-64.92122 -91.62098,-127.04191 -61.55827,-309.62581 65.35845,-401.1538 127.88712,-92.2278 311.68401,-61.96435 403.81852,65.79715 92.83665,128.73513 62.37175,313.74902 -66.23731,406.49207 -129.58593,93.44747 -315.82085,62.78053 -409.17443,-66.67895 -94.06031,-130.43954 -63.19062,-317.8995 67.12204,-411.86562 131.29596,-94.67514 319.98498,-63.60204 414.56563,67.56662 95.29202,132.15517 64.01482,322.07726 -68.01265,417.27445 -133.01719,95.91083 -324.17636,64.4289 -419.9921,-68.46015 -96.53168,-133.88201 -64.84433,-326.28229 68.90912,-422.71857 134.74963,-97.15453 328.39503,-65.2611 425.45385,69.35955 97.7794,135.62005 65.6792,330.51459 -69.81144,428.19798 -136.49328,98.40624 -332.64098,66.09863 -430.95092,-70.26483 -99.0351,-137.3693 -66.5194,-334.77416 70.71967,-433.71267 138.24813,-99.66596 336.91418,-66.9415 436.48329,71.17597 100.2988,139.12977 67.3649,339.06102 -71.63379,439.26265 C 797.34461,932.65124 596.14414,899.50726 495.30795,759.62456 393.73738,618.72311 427.09212,416.24942 567.86164,314.77665 709.65312,212.56721 913.40406,246.13338 1015.5154,387.79252 1118.3657,530.47684 1084.5875,735.50905 942.0359,838.26096 798.45593,941.75417 592.13844,907.76313 488.74394,764.31635 384.60586,619.83794 418.81033,412.23115 563.15513,308.19207 708.53479,203.4071 917.43489,237.82567 1022.1206,383.07131 1127.5544,529.35502 1092.9211,739.55244 946.77181,844.8867 799.58125,950.97145 588.08248,916.12267 482.09763,769.06698 375.35999,620.96676 410.42487,408.16263 558.3898,301.52519 707.40248,194.13264 921.51598,229.4143 1028.808,378.29126 1136.8575,528.2192 1101.3584,743.6461 951.56656,851.59474 800.72057,960.30309 583.97626,924.58588 475.36902,773.87643 365.99976,622.10957 401.93575,404.04384 553.56564,294.77599 c 152.69052,-110.03217 372.08169,-73.87673 482.01216,78.6764 110.6971,153.617 74.3215,374.33762 -79.15766,484.93269 -154.54626,111.364 -376.60036,74.76767 -487.86205,-79.64036 -112.03291,-155.47834 -75.21513,-378.86992 80.12455,-490.80023 156.41321,-112.70384 381.1463,-75.66394 493.74726,80.6102 113.3767,157.35089 76.114,383.4295 -81.09735,496.70305 C 803.04119,979.30943 575.61304,941.82329 461.66486,783.67184 346.93624,624.43719 384.6465,395.65549 543.74081,281.03068 703.92155,165.62313 934.06082,203.55818 1049.3643,363.59815 1165.4527,524.72777 1127.2922,756.22863 966.3038,872.2127 804.22249,988.98413 571.35604,950.5975 454.68932,788.65779 337.23295,625.62199 375.84638,391.38592 538.74015,274.03457 702.73324,155.89125 938.34295,194.73214 1056.3809,358.58279 1175.2132,523.53597 1136.1442,760.52332 971.33387,879.24997 805.41779,998.77319 567.04878,959.47537 447.63148,793.70257 327.41531,626.82079 366.94259,387.0661 533.68067,266.95615 701.53095,146.04502 942.67534,185.80243 1063.4799,353.50859 1185.088,522.33017 1145.0998,764.86828 976.42278,886.36954 806.62709,1008.6766 562.69126,968.45691 440.49133,798.80619 317.48331,628.03359 357.93513,382.69601 528.56234,259.79542 700.31465,136.08443 947.05799,176.76906 1070.6613,348.37556 1195.0772,521.11038 1154.1591,769.26349 981.57051,893.57143 807.85038,1018.6944 558.28347,977.54212 433.26887,803.96863 307.43695,629.26038 348.82401,378.27567 523.38519,252.55238 699.08436,126.00949 951.4909,167.63202 1077.9249,343.1837 1205.1807,519.87659 1163.3221,773.70897 986.77708,900.85562 809.08767,1028.8265 553.82543,986.73099 425.9641,809.18991 297.27624,630.50116 339.60922,373.80506 518.14921,245.22704 697.84008,115.82019 955.97407,158.39132 1085.2708,337.93301 1215.3986,518.62881 1172.5887,778.2047 992.04248,908.22212 810.33895,1039.073 549.31713,996.02353 418.57702,814.47001 287.00118,631.75595 330.29076,369.2842 512.85439,237.81939 696.5818,105.51654 960.5075,149.04694 1092.699,332.62349 c 133.0319,184.74354 89.26,450.12721 -95.33229,583.04743 -185.76248,133.76288 -452.60814,89.74878 -586.25907,-95.86197 -134.49588,-186.78423 -90.239,-455.09588 96.39311,-589.47952 187.80877,-135.2309 457.59044,-90.73053 592.70875,96.9257 135.968,188.83612 91.2234,460.09183 -97.4597,595.9469 C 812.8835,1059.909 540.14975,1014.9196 403.55595,825.20672 266.10799,634.3075 311.34285,360.09168 502.08827,222.75716 694.02325,84.566169 969.72514,130.0472 1107.8024,321.82795 c 138.936,192.97353 93.2082,470.16552 -99.6107,608.9875 C 814.17677,1070.4985 535.49067,1024.5231 395.92196,830.66332 255.48986,635.60427 301.7134,355.42004 496.61696,215.10259 692.72298,73.919454 974.40935,120.39182 1115.4775,316.34193 1257.4137,513.49771 1210.6918,796.69025 1013.6924,938.51118 815.48404,1081.2024 530.78133,1034.2304 388.20565,836.17875 244.75738,636.91503 291.98027,350.69813 491.08682,207.36571 691.40871,63.158383 979.14382,110.63278 1123.235,310.79708 1268.2034,512.17995 1220.4768,801.43728 1019.2519,946.28921 816.8053,1092.0206 526.02173,1044.0412 380.40704,841.75302 233.91055,638.23979 282.14348,345.92597 485.49785,199.54652 690.08045,52.282959 983.92855,100.77008 1131.0748,305.19341 1279.1074,510.84819 1230.3654,806.23458 1024.8703,954.14955 818.14056,1102.9533 521.21187,1053.9558 372.52613,847.38611 222.94936,639.57855 272.20303,341.10354 479.85005,191.64503 688.7382,41.29318 988.76354,90.803703 1138.9968,299.5309 1290.1258,509.50244 1240.3577,811.08213 1030.5475,962.0922 819.48981,1114.0002 516.35175,1063.974 364.5629,853.07804 211.87381,640.93131 262.1589,336.23086 474.14342,183.66122 687.38195,30.189046 993.64879,80.733663 1147.0012,293.80955 1301.2585,508.14269 1250.4537,815.97995 1036.2836,970.11716 820.85306,1125.1615 511.44137,1074.0958 356.51737,858.82879 200.68391,642.29805 252.01111,331.30791 468.37795,175.59511 686.0117,18.970558 998.5843,70.559956 1155.0879,288.02938 1312.5056,506.76894 1260.6533,820.92802 1042.0785,978.22442 822.23031,1136.4372 506.48073,1084.3214 348.38953,864.63838 189.37966,643.6788 241.75966,326.33471 462.55365,167.4467 684.62745,7.6377149 1003.5701,60.282583 1163.2569,282.19038 1323.867,505.3812 1270.9566,825.92636 1047.9322,986.41399"
       transform="matrix(0.75501598,0,0,0.75898526,203.75272,110.20979)" />
    <rect
       style="fill:none;fill-opacity:1;stroke:#000000;stroke-width:5.47486;stroke-opacity:1"
       id="rect6"
       width="939.40704"
       height="939.40704"
       x="305.09964"
       y="78.327988" />
  </g>
</svg>
